<mxfile host="app.diagrams.net" modified="2020-09-02T09:39:20.988Z" agent="5.0 (Windows NT 10.0; Win64; x64) AppleWebKit/537.36 (KHTML, like Gecko) Chrome/84.0.4147.135 Safari/537.36" etag="lijk5snq-XxLAZzGNyYK" version="13.6.2" type="github">
  <diagram id="n5j7XL5tN34sj4AzdMuH" name="Page-1">
    <mxGraphModel dx="2048" dy="527" grid="1" gridSize="10" guides="1" tooltips="1" connect="1" arrows="1" fold="1" page="1" pageScale="1" pageWidth="980" pageHeight="1390" math="0" shadow="0">
      <root>
        <mxCell id="0" />
        <mxCell id="1" parent="0" />
        <mxCell id="ccJrt9O3t7oF8oVuPIEJ-3" value="" style="edgeStyle=orthogonalEdgeStyle;rounded=0;orthogonalLoop=1;jettySize=auto;html=1;" edge="1" parent="1" source="ccJrt9O3t7oF8oVuPIEJ-1" target="ccJrt9O3t7oF8oVuPIEJ-2">
          <mxGeometry relative="1" as="geometry" />
        </mxCell>
        <mxCell id="ccJrt9O3t7oF8oVuPIEJ-1" value="&lt;pre style=&quot;background-color: #ffffff ; color: #080808 ; font-family: &amp;#34;jetbrains mono&amp;#34; , monospace ; font-size: 9.8pt&quot;&gt;&lt;span style=&quot;color: #000000&quot;&gt;InvokerInvocationHandler&lt;/span&gt;&lt;/pre&gt;&lt;pre style=&quot;background-color: #ffffff ; color: #080808 ; font-family: &amp;#34;jetbrains mono&amp;#34; , monospace ; font-size: 9.8pt&quot;&gt;invoke()&lt;span style=&quot;color: #000000&quot;&gt;&lt;br&gt;&lt;/span&gt;&lt;/pre&gt;" style="rounded=1;whiteSpace=wrap;html=1;" vertex="1" parent="1">
          <mxGeometry x="40" y="40" width="120" height="60" as="geometry" />
        </mxCell>
        <mxCell id="ccJrt9O3t7oF8oVuPIEJ-5" value="" style="edgeStyle=orthogonalEdgeStyle;rounded=0;orthogonalLoop=1;jettySize=auto;html=1;" edge="1" parent="1" source="ccJrt9O3t7oF8oVuPIEJ-2" target="ccJrt9O3t7oF8oVuPIEJ-4">
          <mxGeometry relative="1" as="geometry" />
        </mxCell>
        <mxCell id="ccJrt9O3t7oF8oVuPIEJ-2" value="&lt;pre style=&quot;background-color: #ffffff ; color: #080808 ; font-family: &amp;#34;jetbrains mono&amp;#34; , monospace ; font-size: 9.8pt&quot;&gt;&lt;span style=&quot;color: #000000&quot;&gt;MockClusterInvoker&lt;/span&gt;&lt;/pre&gt;" style="whiteSpace=wrap;html=1;rounded=1;" vertex="1" parent="1">
          <mxGeometry x="240" y="40" width="120" height="60" as="geometry" />
        </mxCell>
        <mxCell id="ccJrt9O3t7oF8oVuPIEJ-7" value="" style="edgeStyle=orthogonalEdgeStyle;rounded=0;orthogonalLoop=1;jettySize=auto;html=1;" edge="1" parent="1" source="ccJrt9O3t7oF8oVuPIEJ-4" target="ccJrt9O3t7oF8oVuPIEJ-6">
          <mxGeometry relative="1" as="geometry" />
        </mxCell>
        <mxCell id="ccJrt9O3t7oF8oVuPIEJ-4" value="&lt;pre style=&quot;background-color: #ffffff ; color: #080808 ; font-family: &amp;#34;jetbrains mono&amp;#34; , monospace ; font-size: 9.8pt&quot;&gt;&lt;span style=&quot;color: #000000&quot;&gt;FailoverClusterInvoker&lt;/span&gt;&lt;/pre&gt;" style="whiteSpace=wrap;html=1;rounded=1;" vertex="1" parent="1">
          <mxGeometry x="440" y="40" width="120" height="60" as="geometry" />
        </mxCell>
        <mxCell id="ccJrt9O3t7oF8oVuPIEJ-55" value="" style="edgeStyle=orthogonalEdgeStyle;rounded=0;orthogonalLoop=1;jettySize=auto;html=1;" edge="1" parent="1" source="ccJrt9O3t7oF8oVuPIEJ-6" target="ccJrt9O3t7oF8oVuPIEJ-8">
          <mxGeometry relative="1" as="geometry" />
        </mxCell>
        <mxCell id="ccJrt9O3t7oF8oVuPIEJ-6" value="&lt;pre style=&quot;background-color: #ffffff ; color: #080808 ; font-family: &amp;#34;jetbrains mono&amp;#34; , monospace ; font-size: 9.8pt&quot;&gt;&lt;span style=&quot;color: #000000&quot;&gt;DubboInvoker&lt;/span&gt;&lt;/pre&gt;" style="whiteSpace=wrap;html=1;rounded=1;" vertex="1" parent="1">
          <mxGeometry x="640" y="40" width="120" height="60" as="geometry" />
        </mxCell>
        <mxCell id="ccJrt9O3t7oF8oVuPIEJ-56" value="" style="edgeStyle=orthogonalEdgeStyle;rounded=0;orthogonalLoop=1;jettySize=auto;html=1;" edge="1" parent="1" source="ccJrt9O3t7oF8oVuPIEJ-8" target="ccJrt9O3t7oF8oVuPIEJ-10">
          <mxGeometry relative="1" as="geometry" />
        </mxCell>
        <mxCell id="ccJrt9O3t7oF8oVuPIEJ-8" value="&lt;span style=&quot;color: rgb(68 , 85 , 136) ; font-family: , &amp;#34;consolas&amp;#34; , &amp;#34;liberation mono&amp;#34; , &amp;#34;menlo&amp;#34; , &amp;#34;courier&amp;#34; , monospace ; font-size: 13.6px ; font-weight: 700 ; background-color: rgb(246 , 248 , 250)&quot;&gt;ReferenceCountExchangeClient&lt;/span&gt;" style="whiteSpace=wrap;html=1;rounded=1;" vertex="1" parent="1">
          <mxGeometry x="840" y="40" width="120" height="60" as="geometry" />
        </mxCell>
        <mxCell id="ccJrt9O3t7oF8oVuPIEJ-13" value="" style="edgeStyle=orthogonalEdgeStyle;rounded=0;orthogonalLoop=1;jettySize=auto;html=1;" edge="1" parent="1" source="ccJrt9O3t7oF8oVuPIEJ-10" target="ccJrt9O3t7oF8oVuPIEJ-12">
          <mxGeometry relative="1" as="geometry" />
        </mxCell>
        <mxCell id="ccJrt9O3t7oF8oVuPIEJ-10" value="&lt;span style=&quot;color: rgb(68 , 85 , 136) ; font-family: , &amp;#34;consolas&amp;#34; , &amp;#34;liberation mono&amp;#34; , &amp;#34;menlo&amp;#34; , &amp;#34;courier&amp;#34; , monospace ; font-size: 13.6px ; font-weight: 700 ; background-color: rgb(246 , 248 , 250)&quot;&gt;HeaderExchangeClient&lt;/span&gt;" style="whiteSpace=wrap;html=1;rounded=1;" vertex="1" parent="1">
          <mxGeometry x="840" y="160" width="120" height="60" as="geometry" />
        </mxCell>
        <mxCell id="ccJrt9O3t7oF8oVuPIEJ-15" value="" style="edgeStyle=orthogonalEdgeStyle;rounded=0;orthogonalLoop=1;jettySize=auto;html=1;" edge="1" parent="1" source="ccJrt9O3t7oF8oVuPIEJ-12" target="ccJrt9O3t7oF8oVuPIEJ-14">
          <mxGeometry relative="1" as="geometry" />
        </mxCell>
        <mxCell id="ccJrt9O3t7oF8oVuPIEJ-12" value="&lt;span style=&quot;color: rgb(36 , 41 , 46) ; font-family: , &amp;#34;consolas&amp;#34; , &amp;#34;liberation mono&amp;#34; , &amp;#34;menlo&amp;#34; , &amp;#34;courier&amp;#34; , monospace ; font-size: 13.6px ; background-color: rgb(246 , 248 , 250)&quot;&gt;HeaderExchangeChannel&lt;/span&gt;" style="whiteSpace=wrap;html=1;rounded=1;" vertex="1" parent="1">
          <mxGeometry x="640" y="160" width="120" height="60" as="geometry" />
        </mxCell>
        <mxCell id="ccJrt9O3t7oF8oVuPIEJ-17" value="" style="edgeStyle=orthogonalEdgeStyle;rounded=0;orthogonalLoop=1;jettySize=auto;html=1;" edge="1" parent="1" source="ccJrt9O3t7oF8oVuPIEJ-14" target="ccJrt9O3t7oF8oVuPIEJ-16">
          <mxGeometry relative="1" as="geometry" />
        </mxCell>
        <mxCell id="ccJrt9O3t7oF8oVuPIEJ-14" value="&lt;span style=&quot;color: rgb(36 , 41 , 46) ; font-family: , &amp;#34;consolas&amp;#34; , &amp;#34;liberation mono&amp;#34; , &amp;#34;menlo&amp;#34; , &amp;#34;courier&amp;#34; , monospace ; font-size: 13.6px ; background-color: rgb(246 , 248 , 250)&quot;&gt;AbstractPeer&lt;/span&gt;" style="whiteSpace=wrap;html=1;rounded=1;" vertex="1" parent="1">
          <mxGeometry x="440" y="160" width="120" height="60" as="geometry" />
        </mxCell>
        <mxCell id="ccJrt9O3t7oF8oVuPIEJ-19" value="" style="edgeStyle=orthogonalEdgeStyle;rounded=0;orthogonalLoop=1;jettySize=auto;html=1;" edge="1" parent="1" source="ccJrt9O3t7oF8oVuPIEJ-16" target="ccJrt9O3t7oF8oVuPIEJ-18">
          <mxGeometry relative="1" as="geometry" />
        </mxCell>
        <mxCell id="ccJrt9O3t7oF8oVuPIEJ-16" value="&lt;span style=&quot;color: rgb(36 , 41 , 46) ; font-family: , &amp;#34;consolas&amp;#34; , &amp;#34;liberation mono&amp;#34; , &amp;#34;menlo&amp;#34; , &amp;#34;courier&amp;#34; , monospace ; font-size: 13.6px ; background-color: rgb(246 , 248 , 250)&quot;&gt;AbstractClient&lt;/span&gt;" style="whiteSpace=wrap;html=1;rounded=1;" vertex="1" parent="1">
          <mxGeometry x="240" y="160" width="120" height="60" as="geometry" />
        </mxCell>
        <mxCell id="ccJrt9O3t7oF8oVuPIEJ-21" value="" style="edgeStyle=orthogonalEdgeStyle;rounded=0;orthogonalLoop=1;jettySize=auto;html=1;" edge="1" parent="1" source="ccJrt9O3t7oF8oVuPIEJ-18" target="ccJrt9O3t7oF8oVuPIEJ-20">
          <mxGeometry relative="1" as="geometry" />
        </mxCell>
        <mxCell id="ccJrt9O3t7oF8oVuPIEJ-18" value="&lt;span style=&quot;color: rgb(36 , 41 , 46) ; font-family: , &amp;#34;consolas&amp;#34; , &amp;#34;liberation mono&amp;#34; , &amp;#34;menlo&amp;#34; , &amp;#34;courier&amp;#34; , monospace ; font-size: 13.6px ; background-color: rgb(246 , 248 , 250)&quot;&gt;NettyChannel&lt;/span&gt;" style="whiteSpace=wrap;html=1;rounded=1;" vertex="1" parent="1">
          <mxGeometry x="40" y="160" width="120" height="60" as="geometry" />
        </mxCell>
        <mxCell id="ccJrt9O3t7oF8oVuPIEJ-20" value="&lt;span style=&quot;color: rgb(36 , 41 , 46) ; font-family: , &amp;#34;consolas&amp;#34; , &amp;#34;liberation mono&amp;#34; , &amp;#34;menlo&amp;#34; , &amp;#34;courier&amp;#34; , monospace ; font-size: 13.6px ; background-color: rgb(246 , 248 , 250)&quot;&gt;NioClientSocketChannel&lt;/span&gt;" style="whiteSpace=wrap;html=1;rounded=1;" vertex="1" parent="1">
          <mxGeometry x="40" y="270" width="120" height="60" as="geometry" />
        </mxCell>
        <mxCell id="ccJrt9O3t7oF8oVuPIEJ-24" value="" style="edgeStyle=orthogonalEdgeStyle;rounded=0;orthogonalLoop=1;jettySize=auto;html=1;" edge="1" parent="1" source="ccJrt9O3t7oF8oVuPIEJ-22" target="ccJrt9O3t7oF8oVuPIEJ-23">
          <mxGeometry relative="1" as="geometry" />
        </mxCell>
        <mxCell id="ccJrt9O3t7oF8oVuPIEJ-22" value="&lt;pre style=&quot;background-color: #ffffff ; color: #080808 ; font-family: &amp;#34;jetbrains mono&amp;#34; , monospace ; font-size: 9.8pt&quot;&gt;NettyCodecAdapter&lt;span style=&quot;color: #000000&quot;&gt;$InternalEncoder&lt;/span&gt;&lt;/pre&gt;" style="rounded=1;whiteSpace=wrap;html=1;" vertex="1" parent="1">
          <mxGeometry x="40" y="400" width="120" height="60" as="geometry" />
        </mxCell>
        <mxCell id="ccJrt9O3t7oF8oVuPIEJ-26" value="" style="edgeStyle=orthogonalEdgeStyle;rounded=0;orthogonalLoop=1;jettySize=auto;html=1;" edge="1" parent="1" source="ccJrt9O3t7oF8oVuPIEJ-23" target="ccJrt9O3t7oF8oVuPIEJ-25">
          <mxGeometry relative="1" as="geometry" />
        </mxCell>
        <mxCell id="ccJrt9O3t7oF8oVuPIEJ-23" value="&lt;pre style=&quot;background-color: #ffffff ; color: #080808 ; font-family: &amp;#34;jetbrains mono&amp;#34; , monospace ; font-size: 9.8pt&quot;&gt;&lt;span style=&quot;color: #000000&quot;&gt;DubboCountCodec&lt;/span&gt;&lt;/pre&gt;" style="whiteSpace=wrap;html=1;rounded=1;" vertex="1" parent="1">
          <mxGeometry x="240" y="400" width="120" height="60" as="geometry" />
        </mxCell>
        <mxCell id="ccJrt9O3t7oF8oVuPIEJ-28" value="" style="edgeStyle=orthogonalEdgeStyle;rounded=0;orthogonalLoop=1;jettySize=auto;html=1;" edge="1" parent="1" source="ccJrt9O3t7oF8oVuPIEJ-25" target="ccJrt9O3t7oF8oVuPIEJ-27">
          <mxGeometry relative="1" as="geometry" />
        </mxCell>
        <mxCell id="ccJrt9O3t7oF8oVuPIEJ-25" value="&lt;pre style=&quot;background-color: #ffffff ; color: #080808 ; font-family: &amp;#34;jetbrains mono&amp;#34; , monospace ; font-size: 9.8pt&quot;&gt;&lt;span style=&quot;color: #000000&quot;&gt;ExchangeCodec&lt;/span&gt;&lt;/pre&gt;" style="whiteSpace=wrap;html=1;rounded=1;" vertex="1" parent="1">
          <mxGeometry x="440" y="400" width="120" height="60" as="geometry" />
        </mxCell>
        <mxCell id="ccJrt9O3t7oF8oVuPIEJ-27" value="&lt;pre style=&quot;background-color: #ffffff ; color: #080808 ; font-family: &amp;#34;jetbrains mono&amp;#34; , monospace ; font-size: 9.8pt&quot;&gt;&lt;span style=&quot;color: #000000&quot;&gt;DubboCodec&lt;/span&gt;&lt;/pre&gt;" style="whiteSpace=wrap;html=1;rounded=1;" vertex="1" parent="1">
          <mxGeometry x="640" y="400" width="120" height="60" as="geometry" />
        </mxCell>
        <mxCell id="ccJrt9O3t7oF8oVuPIEJ-31" value="" style="edgeStyle=orthogonalEdgeStyle;rounded=0;orthogonalLoop=1;jettySize=auto;html=1;" edge="1" parent="1" source="ccJrt9O3t7oF8oVuPIEJ-29" target="ccJrt9O3t7oF8oVuPIEJ-30">
          <mxGeometry relative="1" as="geometry" />
        </mxCell>
        <mxCell id="ccJrt9O3t7oF8oVuPIEJ-29" value="&lt;pre style=&quot;background-color: #ffffff ; color: #080808 ; font-family: &amp;#34;jetbrains mono&amp;#34; , monospace ; font-size: 9.8pt&quot;&gt;&lt;span style=&quot;color: #000000&quot;&gt;NettyServerHandler&lt;/span&gt;&lt;/pre&gt;&lt;pre style=&quot;background-color: #ffffff ; color: #080808 ; font-family: &amp;#34;jetbrains mono&amp;#34; , monospace ; font-size: 9.8pt&quot;&gt;channelRead()&lt;/pre&gt;" style="rounded=1;whiteSpace=wrap;html=1;" vertex="1" parent="1">
          <mxGeometry x="40" y="560" width="120" height="60" as="geometry" />
        </mxCell>
        <mxCell id="ccJrt9O3t7oF8oVuPIEJ-33" value="" style="edgeStyle=orthogonalEdgeStyle;rounded=0;orthogonalLoop=1;jettySize=auto;html=1;" edge="1" parent="1" source="ccJrt9O3t7oF8oVuPIEJ-30" target="ccJrt9O3t7oF8oVuPIEJ-32">
          <mxGeometry relative="1" as="geometry" />
        </mxCell>
        <mxCell id="ccJrt9O3t7oF8oVuPIEJ-30" value="&lt;pre style=&quot;background-color: #ffffff ; color: #080808 ; font-family: &amp;#34;jetbrains mono&amp;#34; , monospace ; font-size: 9.8pt&quot;&gt;&lt;span style=&quot;color: #000000&quot;&gt;AbstractPeer&lt;/span&gt;&lt;/pre&gt;" style="whiteSpace=wrap;html=1;rounded=1;" vertex="1" parent="1">
          <mxGeometry x="240" y="560" width="120" height="60" as="geometry" />
        </mxCell>
        <mxCell id="ccJrt9O3t7oF8oVuPIEJ-35" value="" style="edgeStyle=orthogonalEdgeStyle;rounded=0;orthogonalLoop=1;jettySize=auto;html=1;" edge="1" parent="1" source="ccJrt9O3t7oF8oVuPIEJ-32" target="ccJrt9O3t7oF8oVuPIEJ-34">
          <mxGeometry relative="1" as="geometry" />
        </mxCell>
        <mxCell id="ccJrt9O3t7oF8oVuPIEJ-32" value="&lt;pre style=&quot;background-color: #ffffff ; color: #080808 ; font-family: &amp;#34;jetbrains mono&amp;#34; , monospace ; font-size: 9.8pt&quot;&gt;&lt;span style=&quot;color: #000000&quot;&gt;MultiMessageHandler&lt;/span&gt;&lt;/pre&gt;" style="whiteSpace=wrap;html=1;rounded=1;" vertex="1" parent="1">
          <mxGeometry x="440" y="560" width="120" height="60" as="geometry" />
        </mxCell>
        <mxCell id="ccJrt9O3t7oF8oVuPIEJ-37" value="" style="edgeStyle=orthogonalEdgeStyle;rounded=0;orthogonalLoop=1;jettySize=auto;html=1;" edge="1" parent="1" source="ccJrt9O3t7oF8oVuPIEJ-34" target="ccJrt9O3t7oF8oVuPIEJ-36">
          <mxGeometry relative="1" as="geometry" />
        </mxCell>
        <mxCell id="ccJrt9O3t7oF8oVuPIEJ-34" value="&lt;span style=&quot;color: rgb(36 , 41 , 46) ; font-family: , &amp;#34;consolas&amp;#34; , &amp;#34;liberation mono&amp;#34; , &amp;#34;menlo&amp;#34; , &amp;#34;courier&amp;#34; , monospace ; font-size: 13.6px ; background-color: rgb(246 , 248 , 250)&quot;&gt;HeartbeatHandler&lt;/span&gt;" style="whiteSpace=wrap;html=1;rounded=1;" vertex="1" parent="1">
          <mxGeometry x="640" y="560" width="120" height="60" as="geometry" />
        </mxCell>
        <mxCell id="ccJrt9O3t7oF8oVuPIEJ-39" value="" style="edgeStyle=orthogonalEdgeStyle;rounded=0;orthogonalLoop=1;jettySize=auto;html=1;" edge="1" parent="1" source="ccJrt9O3t7oF8oVuPIEJ-36" target="ccJrt9O3t7oF8oVuPIEJ-38">
          <mxGeometry relative="1" as="geometry" />
        </mxCell>
        <mxCell id="ccJrt9O3t7oF8oVuPIEJ-36" value="&lt;span style=&quot;color: rgb(36 , 41 , 46) ; font-family: , &amp;#34;consolas&amp;#34; , &amp;#34;liberation mono&amp;#34; , &amp;#34;menlo&amp;#34; , &amp;#34;courier&amp;#34; , monospace ; font-size: 13.6px ; background-color: rgb(246 , 248 , 250)&quot;&gt;AllChannelHandler&lt;/span&gt;" style="whiteSpace=wrap;html=1;rounded=1;" vertex="1" parent="1">
          <mxGeometry x="840" y="560" width="120" height="60" as="geometry" />
        </mxCell>
        <mxCell id="ccJrt9O3t7oF8oVuPIEJ-41" value="" style="edgeStyle=orthogonalEdgeStyle;rounded=0;orthogonalLoop=1;jettySize=auto;html=1;" edge="1" parent="1" source="ccJrt9O3t7oF8oVuPIEJ-38" target="ccJrt9O3t7oF8oVuPIEJ-40">
          <mxGeometry relative="1" as="geometry" />
        </mxCell>
        <mxCell id="ccJrt9O3t7oF8oVuPIEJ-38" value="&lt;span style=&quot;color: rgb(36 , 41 , 46) ; font-family: , &amp;#34;consolas&amp;#34; , &amp;#34;liberation mono&amp;#34; , &amp;#34;menlo&amp;#34; , &amp;#34;courier&amp;#34; , monospace ; font-size: 13.6px ; background-color: rgb(246 , 248 , 250)&quot;&gt;ExecutorService&lt;br&gt;&lt;/span&gt;&lt;span style=&quot;color: rgb(36 , 41 , 46) ; font-family: , &amp;#34;consolas&amp;#34; , &amp;#34;liberation mono&amp;#34; , &amp;#34;menlo&amp;#34; , &amp;#34;courier&amp;#34; , monospace ; font-size: 13.6px ; background-color: rgb(246 , 248 , 250)&quot;&gt;execute()&lt;/span&gt;&lt;span style=&quot;color: rgb(36 , 41 , 46) ; font-family: , &amp;#34;consolas&amp;#34; , &amp;#34;liberation mono&amp;#34; , &amp;#34;menlo&amp;#34; , &amp;#34;courier&amp;#34; , monospace ; font-size: 13.6px ; background-color: rgb(246 , 248 , 250)&quot;&gt;&lt;br&gt;&lt;br&gt;&lt;/span&gt;" style="whiteSpace=wrap;html=1;rounded=1;" vertex="1" parent="1">
          <mxGeometry x="840" y="700" width="120" height="60" as="geometry" />
        </mxCell>
        <mxCell id="ccJrt9O3t7oF8oVuPIEJ-43" value="" style="edgeStyle=orthogonalEdgeStyle;rounded=0;orthogonalLoop=1;jettySize=auto;html=1;" edge="1" parent="1" source="ccJrt9O3t7oF8oVuPIEJ-40" target="ccJrt9O3t7oF8oVuPIEJ-42">
          <mxGeometry relative="1" as="geometry" />
        </mxCell>
        <mxCell id="ccJrt9O3t7oF8oVuPIEJ-40" value="&lt;span style=&quot;color: rgb(68 , 85 , 136) ; font-family: , &amp;#34;consolas&amp;#34; , &amp;#34;liberation mono&amp;#34; , &amp;#34;menlo&amp;#34; , &amp;#34;courier&amp;#34; , monospace ; font-size: 13.6px ; font-weight: 700 ; background-color: rgb(246 , 248 , 250)&quot;&gt;ChannelEventRunnable&lt;/span&gt;" style="whiteSpace=wrap;html=1;rounded=1;" vertex="1" parent="1">
          <mxGeometry x="640" y="700" width="120" height="60" as="geometry" />
        </mxCell>
        <mxCell id="ccJrt9O3t7oF8oVuPIEJ-45" value="" style="edgeStyle=orthogonalEdgeStyle;rounded=0;orthogonalLoop=1;jettySize=auto;html=1;" edge="1" parent="1" source="ccJrt9O3t7oF8oVuPIEJ-42" target="ccJrt9O3t7oF8oVuPIEJ-44">
          <mxGeometry relative="1" as="geometry" />
        </mxCell>
        <mxCell id="ccJrt9O3t7oF8oVuPIEJ-42" value="&lt;span class=&quot;hljs-title&quot; style=&quot;padding: 0px ; margin: 0px ; box-sizing: border-box ; color: rgb(68 , 85 , 136) ; font-weight: 700 ; font-family: , &amp;#34;consolas&amp;#34; , &amp;#34;liberation mono&amp;#34; , &amp;#34;menlo&amp;#34; , &amp;#34;courier&amp;#34; , monospace ; font-size: 13.6px ; background-color: rgb(246 , 248 , 250)&quot;&gt;DecodeHandler&lt;/span&gt;&lt;span style=&quot;color: rgb(36 , 41 , 46) ; font-family: , &amp;#34;consolas&amp;#34; , &amp;#34;liberation mono&amp;#34; , &amp;#34;menlo&amp;#34; , &amp;#34;courier&amp;#34; , monospace ; font-size: 13.6px ; background-color: rgb(246 , 248 , 250)&quot;&gt; &lt;/span&gt;" style="whiteSpace=wrap;html=1;rounded=1;" vertex="1" parent="1">
          <mxGeometry x="440" y="700" width="120" height="60" as="geometry" />
        </mxCell>
        <mxCell id="ccJrt9O3t7oF8oVuPIEJ-47" value="" style="edgeStyle=orthogonalEdgeStyle;rounded=0;orthogonalLoop=1;jettySize=auto;html=1;" edge="1" parent="1" source="ccJrt9O3t7oF8oVuPIEJ-44" target="ccJrt9O3t7oF8oVuPIEJ-46">
          <mxGeometry relative="1" as="geometry" />
        </mxCell>
        <mxCell id="ccJrt9O3t7oF8oVuPIEJ-44" value="&lt;span style=&quot;color: rgb(68 , 85 , 136) ; font-family: , &amp;#34;consolas&amp;#34; , &amp;#34;liberation mono&amp;#34; , &amp;#34;menlo&amp;#34; , &amp;#34;courier&amp;#34; , monospace ; font-size: 13.6px ; font-weight: 700 ; background-color: rgb(246 , 248 , 250)&quot;&gt;HeaderExchangeHandler&lt;/span&gt;" style="whiteSpace=wrap;html=1;rounded=1;" vertex="1" parent="1">
          <mxGeometry x="240" y="700" width="120" height="60" as="geometry" />
        </mxCell>
        <mxCell id="ccJrt9O3t7oF8oVuPIEJ-49" value="" style="edgeStyle=orthogonalEdgeStyle;rounded=0;orthogonalLoop=1;jettySize=auto;html=1;" edge="1" parent="1" source="ccJrt9O3t7oF8oVuPIEJ-46" target="ccJrt9O3t7oF8oVuPIEJ-48">
          <mxGeometry relative="1" as="geometry" />
        </mxCell>
        <mxCell id="ccJrt9O3t7oF8oVuPIEJ-46" value="&lt;span style=&quot;color: rgb(68 , 85 , 136) ; font-family: , &amp;#34;consolas&amp;#34; , &amp;#34;liberation mono&amp;#34; , &amp;#34;menlo&amp;#34; , &amp;#34;courier&amp;#34; , monospace ; font-size: 13.6px ; font-weight: 700 ; background-color: rgb(246 , 248 , 250)&quot;&gt;DubboProtocol&lt;/span&gt;&lt;span style=&quot;color: rgb(36 , 41 , 46) ; font-family: , &amp;#34;consolas&amp;#34; , &amp;#34;liberation mono&amp;#34; , &amp;#34;menlo&amp;#34; , &amp;#34;courier&amp;#34; , monospace ; font-size: 13.6px ; background-color: rgb(246 , 248 , 250)&quot;&gt;.requestHandler&lt;/span&gt;&lt;span style=&quot;color: rgb(68 , 85 , 136) ; font-family: , &amp;#34;consolas&amp;#34; , &amp;#34;liberation mono&amp;#34; , &amp;#34;menlo&amp;#34; , &amp;#34;courier&amp;#34; , monospace ; font-size: 13.6px ; font-weight: 700 ; background-color: rgb(246 , 248 , 250)&quot;&gt;&lt;br&gt;&lt;/span&gt;&lt;span style=&quot;color: rgb(153 , 0 , 0) ; font-family: , &amp;#34;consolas&amp;#34; , &amp;#34;liberation mono&amp;#34; , &amp;#34;menlo&amp;#34; , &amp;#34;courier&amp;#34; , monospace ; font-size: 13.6px ; font-weight: 700 ; background-color: rgb(246 , 248 , 250)&quot;&gt;reply()&lt;/span&gt;&lt;span style=&quot;color: rgb(68 , 85 , 136) ; font-family: , &amp;#34;consolas&amp;#34; , &amp;#34;liberation mono&amp;#34; , &amp;#34;menlo&amp;#34; , &amp;#34;courier&amp;#34; , monospace ; font-size: 13.6px ; font-weight: 700 ; background-color: rgb(246 , 248 , 250)&quot;&gt;&lt;br&gt;&lt;/span&gt;" style="whiteSpace=wrap;html=1;rounded=1;" vertex="1" parent="1">
          <mxGeometry x="40" y="700" width="120" height="60" as="geometry" />
        </mxCell>
        <mxCell id="ccJrt9O3t7oF8oVuPIEJ-51" value="" style="edgeStyle=orthogonalEdgeStyle;rounded=0;orthogonalLoop=1;jettySize=auto;html=1;" edge="1" parent="1" source="ccJrt9O3t7oF8oVuPIEJ-48" target="ccJrt9O3t7oF8oVuPIEJ-50">
          <mxGeometry relative="1" as="geometry" />
        </mxCell>
        <mxCell id="ccJrt9O3t7oF8oVuPIEJ-48" value="&lt;span style=&quot;color: rgb(68 , 85 , 136) ; font-family: , &amp;#34;consolas&amp;#34; , &amp;#34;liberation mono&amp;#34; , &amp;#34;menlo&amp;#34; , &amp;#34;courier&amp;#34; , monospace ; font-size: 13.6px ; font-weight: 700 ; background-color: rgb(246 , 248 , 250)&quot;&gt;AbstractProxyInvoker&lt;/span&gt;" style="whiteSpace=wrap;html=1;rounded=1;" vertex="1" parent="1">
          <mxGeometry x="40" y="840" width="120" height="60" as="geometry" />
        </mxCell>
        <mxCell id="ccJrt9O3t7oF8oVuPIEJ-53" value="" style="edgeStyle=orthogonalEdgeStyle;rounded=0;orthogonalLoop=1;jettySize=auto;html=1;" edge="1" parent="1" source="ccJrt9O3t7oF8oVuPIEJ-50" target="ccJrt9O3t7oF8oVuPIEJ-52">
          <mxGeometry relative="1" as="geometry" />
        </mxCell>
        <mxCell id="ccJrt9O3t7oF8oVuPIEJ-50" value="&lt;span style=&quot;color: rgb(68 , 85 , 136) ; font-family: , &amp;#34;consolas&amp;#34; , &amp;#34;liberation mono&amp;#34; , &amp;#34;menlo&amp;#34; , &amp;#34;courier&amp;#34; , monospace ; font-size: 13.6px ; font-weight: 700 ; background-color: rgb(246 , 248 , 250)&quot;&gt;JavassistProxyFactory&lt;/span&gt;" style="whiteSpace=wrap;html=1;rounded=1;" vertex="1" parent="1">
          <mxGeometry x="240" y="840" width="120" height="60" as="geometry" />
        </mxCell>
        <mxCell id="ccJrt9O3t7oF8oVuPIEJ-52" value="&lt;span style=&quot;color: rgb(36 , 41 , 46) ; font-family: , &amp;#34;consolas&amp;#34; , &amp;#34;liberation mono&amp;#34; , &amp;#34;menlo&amp;#34; , &amp;#34;courier&amp;#34; , monospace ; font-size: 13.6px ; background-color: rgb(246 , 248 , 250)&quot;&gt;DemoServiceImpl&lt;/span&gt;" style="whiteSpace=wrap;html=1;rounded=1;" vertex="1" parent="1">
          <mxGeometry x="440" y="840" width="120" height="60" as="geometry" />
        </mxCell>
        <mxCell id="ccJrt9O3t7oF8oVuPIEJ-59" value="" style="edgeStyle=orthogonalEdgeStyle;rounded=0;orthogonalLoop=1;jettySize=auto;html=1;" edge="1" parent="1" source="ccJrt9O3t7oF8oVuPIEJ-57" target="ccJrt9O3t7oF8oVuPIEJ-58">
          <mxGeometry relative="1" as="geometry" />
        </mxCell>
        <mxCell id="ccJrt9O3t7oF8oVuPIEJ-57" value="&lt;pre style=&quot;background-color: #ffffff ; color: #080808 ; font-family: &amp;#34;jetbrains mono&amp;#34; , monospace ; font-size: 9.8pt&quot;&gt;&lt;span style=&quot;color: #000000&quot;&gt;HeaderExchangeHandler&lt;/span&gt;&lt;/pre&gt;&lt;pre style=&quot;background-color: #ffffff ; color: #080808 ; font-family: &amp;#34;jetbrains mono&amp;#34; , monospace ; font-size: 9.8pt&quot;&gt;&lt;pre style=&quot;font-family: &amp;#34;jetbrains mono&amp;#34; , monospace ; font-size: 9.8pt&quot;&gt;&lt;span style=&quot;color: #00627a&quot;&gt;handleRequest()&lt;/span&gt;&lt;/pre&gt;&lt;/pre&gt;" style="rounded=1;whiteSpace=wrap;html=1;" vertex="1" parent="1">
          <mxGeometry x="40" y="1000" width="120" height="60" as="geometry" />
        </mxCell>
        <mxCell id="ccJrt9O3t7oF8oVuPIEJ-61" value="" style="edgeStyle=orthogonalEdgeStyle;rounded=0;orthogonalLoop=1;jettySize=auto;html=1;" edge="1" parent="1" source="ccJrt9O3t7oF8oVuPIEJ-58" target="ccJrt9O3t7oF8oVuPIEJ-60">
          <mxGeometry relative="1" as="geometry" />
        </mxCell>
        <mxCell id="ccJrt9O3t7oF8oVuPIEJ-58" value="&lt;pre style=&quot;background-color: #ffffff ; color: #080808 ; font-family: &amp;#34;jetbrains mono&amp;#34; , monospace ; font-size: 9.8pt&quot;&gt;&lt;span style=&quot;color: #000000&quot;&gt;HeaderExchangeChannel&lt;/span&gt;&lt;/pre&gt;&lt;pre style=&quot;background-color: #ffffff ; color: #080808 ; font-family: &amp;#34;jetbrains mono&amp;#34; , monospace ; font-size: 9.8pt&quot;&gt;&lt;span style=&quot;color: #000000&quot;&gt;send()&lt;/span&gt;&lt;/pre&gt;" style="whiteSpace=wrap;html=1;rounded=1;" vertex="1" parent="1">
          <mxGeometry x="240" y="1000" width="120" height="60" as="geometry" />
        </mxCell>
        <mxCell id="ccJrt9O3t7oF8oVuPIEJ-60" value="&lt;span style=&quot;color: rgb(36 , 41 , 46) ; font-family: , &amp;#34;consolas&amp;#34; , &amp;#34;liberation mono&amp;#34; , &amp;#34;menlo&amp;#34; , &amp;#34;courier&amp;#34; , monospace ; font-size: 13.6px ; background-color: rgb(246 , 248 , 250)&quot;&gt;NettyChannel&lt;br&gt;send()&lt;br&gt;&lt;/span&gt;" style="whiteSpace=wrap;html=1;rounded=1;" vertex="1" parent="1">
          <mxGeometry x="440" y="1000" width="120" height="60" as="geometry" />
        </mxCell>
        <mxCell id="ccJrt9O3t7oF8oVuPIEJ-64" value="" style="edgeStyle=orthogonalEdgeStyle;rounded=0;orthogonalLoop=1;jettySize=auto;html=1;" edge="1" parent="1" source="ccJrt9O3t7oF8oVuPIEJ-62" target="ccJrt9O3t7oF8oVuPIEJ-63">
          <mxGeometry relative="1" as="geometry" />
        </mxCell>
        <mxCell id="ccJrt9O3t7oF8oVuPIEJ-62" value="&lt;pre style=&quot;background-color: #ffffff ; color: #080808 ; font-family: &amp;#34;jetbrains mono&amp;#34; , monospace ; font-size: 11.3pt&quot;&gt;&lt;span style=&quot;color: #000000&quot;&gt;DubboInvoker&lt;/span&gt;&lt;/pre&gt;&lt;pre style=&quot;background-color: #ffffff ; color: #080808 ; font-family: &amp;#34;jetbrains mono&amp;#34; , monospace ; font-size: 11.3pt&quot;&gt;&lt;span style=&quot;color: #00627a&quot;&gt;doInvoke()&lt;/span&gt;&lt;/pre&gt;" style="rounded=1;whiteSpace=wrap;html=1;" vertex="1" parent="1">
          <mxGeometry x="440" y="1160" width="120" height="60" as="geometry" />
        </mxCell>
        <mxCell id="ccJrt9O3t7oF8oVuPIEJ-70" value="" style="edgeStyle=orthogonalEdgeStyle;rounded=0;orthogonalLoop=1;jettySize=auto;html=1;" edge="1" parent="1" source="ccJrt9O3t7oF8oVuPIEJ-63" target="ccJrt9O3t7oF8oVuPIEJ-69">
          <mxGeometry relative="1" as="geometry" />
        </mxCell>
        <object label="&lt;pre style=&quot;background-color: #ffffff ; color: #080808 ; font-family: &amp;#34;jetbrains mono&amp;#34; , monospace ; font-size: 11.3pt&quot;&gt;&lt;span style=&quot;color: #000000&quot;&gt;HeaderExchangeChannel&lt;/span&gt;&lt;/pre&gt;&lt;pre style=&quot;background-color: #ffffff ; color: #080808 ; font-family: &amp;#34;jetbrains mono&amp;#34; , monospace ; font-size: 11.3pt&quot;&gt;&lt;pre style=&quot;font-family: &amp;#34;jetbrains mono&amp;#34; , monospace ; font-size: 11.3pt&quot;&gt;&lt;span style=&quot;color: #00627a&quot;&gt;request&lt;/span&gt;&lt;/pre&gt;&lt;/pre&gt;" id="ccJrt9O3t7oF8oVuPIEJ-63">
          <mxCell style="whiteSpace=wrap;html=1;rounded=1;" vertex="1" parent="1">
            <mxGeometry x="640" y="1160" width="120" height="60" as="geometry" />
          </mxCell>
        </object>
        <mxCell id="ccJrt9O3t7oF8oVuPIEJ-68" value="" style="edgeStyle=orthogonalEdgeStyle;rounded=0;orthogonalLoop=1;jettySize=auto;html=1;" edge="1" parent="1" source="ccJrt9O3t7oF8oVuPIEJ-66" target="ccJrt9O3t7oF8oVuPIEJ-62">
          <mxGeometry relative="1" as="geometry" />
        </mxCell>
        <mxCell id="ccJrt9O3t7oF8oVuPIEJ-66" value="&lt;pre style=&quot;background-color: #ffffff ; color: #080808 ; font-family: &amp;#34;jetbrains mono&amp;#34; , monospace ; font-size: 11.3pt&quot;&gt;&lt;pre style=&quot;font-family: &amp;#34;jetbrains mono&amp;#34; , monospace ; font-size: 11.3pt&quot;&gt;&lt;span style=&quot;color: #000000&quot;&gt;AbstractInvoker&lt;/span&gt;&lt;/pre&gt;&lt;/pre&gt;&lt;pre style=&quot;background-color: #ffffff ; color: #080808 ; font-family: &amp;#34;jetbrains mono&amp;#34; , monospace ; font-size: 11.3pt&quot;&gt;&lt;span style=&quot;color: #00627a&quot;&gt;invoke()&lt;/span&gt;&lt;/pre&gt;" style="whiteSpace=wrap;html=1;rounded=1;" vertex="1" parent="1">
          <mxGeometry x="240" y="1160" width="120" height="60" as="geometry" />
        </mxCell>
        <mxCell id="ccJrt9O3t7oF8oVuPIEJ-77" value="" style="edgeStyle=orthogonalEdgeStyle;rounded=0;orthogonalLoop=1;jettySize=auto;html=1;" edge="1" parent="1" source="ccJrt9O3t7oF8oVuPIEJ-69">
          <mxGeometry relative="1" as="geometry">
            <mxPoint x="900" y="1300" as="targetPoint" />
          </mxGeometry>
        </mxCell>
        <mxCell id="ccJrt9O3t7oF8oVuPIEJ-69" value="&lt;pre style=&quot;background-color: #ffffff ; color: #080808 ; font-family: &amp;#34;jetbrains mono&amp;#34; , monospace ; font-size: 11.3pt&quot;&gt;FutureAdapter&lt;/pre&gt;&lt;pre style=&quot;background-color: #ffffff ; color: #080808 ; font-family: &amp;#34;jetbrains mono&amp;#34; , monospace ; font-size: 11.3pt&quot;&gt;#init&lt;/pre&gt;" style="whiteSpace=wrap;html=1;rounded=1;" vertex="1" parent="1">
          <mxGeometry x="840" y="1160" width="120" height="60" as="geometry" />
        </mxCell>
        <mxCell id="ccJrt9O3t7oF8oVuPIEJ-71" value="&lt;pre style=&quot;background-color: #ffffff ; color: #080808 ; font-family: &amp;#34;jetbrains mono&amp;#34; , monospace ; font-size: 11.3pt&quot;&gt;&lt;span style=&quot;color: #000000&quot;&gt;RpcContext&lt;/span&gt;&lt;/pre&gt;&lt;pre style=&quot;background-color: #ffffff ; color: #080808 ; font-family: &amp;#34;jetbrains mono&amp;#34; , monospace ; font-size: 11.3pt&quot;&gt;&lt;pre style=&quot;font-family: &amp;#34;jetbrains mono&amp;#34; , monospace ; font-size: 11.3pt&quot;&gt;setFuture()&lt;/pre&gt;&lt;/pre&gt;" style="whiteSpace=wrap;html=1;rounded=1;" vertex="1" parent="1">
          <mxGeometry x="840" y="1300" width="120" height="60" as="geometry" />
        </mxCell>
        <mxCell id="ccJrt9O3t7oF8oVuPIEJ-75" value="" style="edgeStyle=orthogonalEdgeStyle;rounded=0;orthogonalLoop=1;jettySize=auto;html=1;" edge="1" parent="1" source="ccJrt9O3t7oF8oVuPIEJ-73" target="ccJrt9O3t7oF8oVuPIEJ-66">
          <mxGeometry relative="1" as="geometry" />
        </mxCell>
        <mxCell id="ccJrt9O3t7oF8oVuPIEJ-73" value="&lt;pre style=&quot;background-color: #ffffff ; color: #080808 ; font-family: &amp;#34;jetbrains mono&amp;#34; , monospace ; font-size: 11.3pt&quot;&gt;&lt;span style=&quot;color: #000000&quot;&gt;AsyncToSyncInvoker&lt;/span&gt;&lt;/pre&gt;&lt;pre style=&quot;background-color: #ffffff ; color: #080808 ; font-family: &amp;#34;jetbrains mono&amp;#34; , monospace ; font-size: 11.3pt&quot;&gt;&lt;pre style=&quot;font-family: &amp;#34;jetbrains mono&amp;#34; , monospace ; font-size: 11.3pt&quot;&gt;invoke()&lt;/pre&gt;&lt;/pre&gt;" style="whiteSpace=wrap;html=1;rounded=1;" vertex="1" parent="1">
          <mxGeometry x="40" y="1160" width="120" height="60" as="geometry" />
        </mxCell>
        <mxCell id="ccJrt9O3t7oF8oVuPIEJ-78" value="客户端异步执行，调用目标接口，RpcContext.getContext().getCompletableFuture().whenComplete&lt;br&gt;等待服务端响应并执行回调" style="text;html=1;strokeColor=none;fillColor=none;align=center;verticalAlign=middle;whiteSpace=wrap;rounded=0;" vertex="1" parent="1">
          <mxGeometry x="200" y="1250" width="420" height="80" as="geometry" />
        </mxCell>
        <mxCell id="ccJrt9O3t7oF8oVuPIEJ-81" value="" style="edgeStyle=orthogonalEdgeStyle;rounded=0;orthogonalLoop=1;jettySize=auto;html=1;" edge="1" parent="1">
          <mxGeometry relative="1" as="geometry">
            <mxPoint x="155" y="1670" as="sourcePoint" />
            <mxPoint x="235" y="1670" as="targetPoint" />
          </mxGeometry>
        </mxCell>
        <mxCell id="ccJrt9O3t7oF8oVuPIEJ-79" value="&lt;pre style=&quot;background-color: #ffffff ; color: #080808 ; font-family: &amp;#34;jetbrains mono&amp;#34; , monospace ; font-size: 11.3pt&quot;&gt;&lt;span style=&quot;color: #000000&quot;&gt;HeaderExchangeHandler&lt;/span&gt;&lt;/pre&gt;&lt;pre style=&quot;background-color: #ffffff ; color: #080808 ; font-family: &amp;#34;jetbrains mono&amp;#34; , monospace ; font-size: 11.3pt&quot;&gt;&lt;pre style=&quot;font-family: &amp;#34;jetbrains mono&amp;#34; , monospace ; font-size: 11.3pt&quot;&gt;&lt;span style=&quot;color: #00627a&quot;&gt;handleResponse()&lt;/span&gt;&lt;/pre&gt;&lt;/pre&gt;" style="rounded=1;whiteSpace=wrap;html=1;" vertex="1" parent="1">
          <mxGeometry x="40" y="1640" width="120" height="60" as="geometry" />
        </mxCell>
        <mxCell id="ccJrt9O3t7oF8oVuPIEJ-80" value="&lt;pre style=&quot;background-color: #ffffff ; color: #080808 ; font-family: &amp;#34;jetbrains mono&amp;#34; , monospace ; font-size: 11.3pt&quot;&gt;&lt;span style=&quot;color: #000000&quot;&gt;DefaultFuture&lt;/span&gt;&lt;/pre&gt;&lt;pre style=&quot;background-color: #ffffff ; color: #080808 ; font-family: &amp;#34;jetbrains mono&amp;#34; , monospace ; font-size: 11.3pt&quot;&gt;&lt;pre style=&quot;font-family: &amp;#34;jetbrains mono&amp;#34; , monospace ; font-size: 11.3pt&quot;&gt;&lt;span style=&quot;font-style: italic&quot;&gt;received()&lt;/span&gt;&lt;/pre&gt;&lt;/pre&gt;" style="whiteSpace=wrap;html=1;rounded=1;" vertex="1" parent="1">
          <mxGeometry x="240" y="1640" width="120" height="60" as="geometry" />
        </mxCell>
        <mxCell id="ccJrt9O3t7oF8oVuPIEJ-84" value="&lt;pre style=&quot;background-color: rgb(255 , 255 , 255) ; color: rgb(8 , 8 , 8) ; font-family: &amp;#34;jetbrains mono&amp;#34; , monospace ; font-size: 11.3pt&quot;&gt;&lt;span style=&quot;color: rgb(0 , 0 , 0)&quot;&gt;DefaultFuture从缓存中获取&lt;/span&gt;DefaultFuture对象并执行complete方法&lt;/pre&gt;&lt;pre style=&quot;background-color: rgb(255 , 255 , 255) ; color: rgb(8 , 8 , 8) ; font-family: &amp;#34;jetbrains mono&amp;#34; , monospace ; font-size: 11.3pt&quot;&gt;此时会回调客户端的回调函数&lt;/pre&gt;" style="text;html=1;strokeColor=none;fillColor=none;align=center;verticalAlign=middle;whiteSpace=wrap;rounded=0;" vertex="1" parent="1">
          <mxGeometry x="130" y="1720" width="510" height="60" as="geometry" />
        </mxCell>
        <mxCell id="ccJrt9O3t7oF8oVuPIEJ-88" value="" style="edgeStyle=orthogonalEdgeStyle;rounded=0;orthogonalLoop=1;jettySize=auto;html=1;" edge="1" parent="1" source="ccJrt9O3t7oF8oVuPIEJ-86">
          <mxGeometry relative="1" as="geometry">
            <mxPoint x="240" y="1450" as="targetPoint" />
          </mxGeometry>
        </mxCell>
        <mxCell id="ccJrt9O3t7oF8oVuPIEJ-86" value="&lt;pre style=&quot;background-color: #ffffff ; color: #080808 ; font-family: &amp;#34;jetbrains mono&amp;#34; , monospace ; font-size: 11.3pt&quot;&gt;&lt;span style=&quot;color: #000000&quot;&gt;HeaderExchangeHandler&lt;/span&gt;&lt;/pre&gt;&lt;pre style=&quot;background-color: #ffffff ; color: #080808 ; font-family: &amp;#34;jetbrains mono&amp;#34; , monospace ; font-size: 11.3pt&quot;&gt;&lt;pre style=&quot;font-family: &amp;#34;jetbrains mono&amp;#34; , monospace ; font-size: 11.3pt&quot;&gt;handleRequest&lt;span style=&quot;color: #00627a&quot;&gt;()&lt;/span&gt;&lt;/pre&gt;&lt;/pre&gt;" style="rounded=1;whiteSpace=wrap;html=1;" vertex="1" parent="1">
          <mxGeometry x="40" y="1420" width="120" height="60" as="geometry" />
        </mxCell>
        <mxCell id="ccJrt9O3t7oF8oVuPIEJ-91" value="" style="edgeStyle=orthogonalEdgeStyle;rounded=0;orthogonalLoop=1;jettySize=auto;html=1;" edge="1" parent="1" source="ccJrt9O3t7oF8oVuPIEJ-89" target="ccJrt9O3t7oF8oVuPIEJ-90">
          <mxGeometry relative="1" as="geometry" />
        </mxCell>
        <mxCell id="ccJrt9O3t7oF8oVuPIEJ-89" value="&lt;span style=&quot;color: rgb(68 , 85 , 136) ; font-family: , &amp;#34;consolas&amp;#34; , &amp;#34;liberation mono&amp;#34; , &amp;#34;menlo&amp;#34; , &amp;#34;courier&amp;#34; , monospace ; font-size: 13.6px ; font-weight: 700 ; background-color: rgb(246 , 248 , 250)&quot;&gt;DubboProtocol&lt;/span&gt;&lt;span style=&quot;color: rgb(36 , 41 , 46) ; font-family: , &amp;#34;consolas&amp;#34; , &amp;#34;liberation mono&amp;#34; , &amp;#34;menlo&amp;#34; , &amp;#34;courier&amp;#34; , monospace ; font-size: 13.6px ; background-color: rgb(246 , 248 , 250)&quot;&gt;.requestHandler&lt;/span&gt;&lt;span style=&quot;color: rgb(68 , 85 , 136) ; font-family: , &amp;#34;consolas&amp;#34; , &amp;#34;liberation mono&amp;#34; , &amp;#34;menlo&amp;#34; , &amp;#34;courier&amp;#34; , monospace ; font-size: 13.6px ; font-weight: 700 ; background-color: rgb(246 , 248 , 250)&quot;&gt;&lt;br&gt;&lt;/span&gt;&lt;span style=&quot;color: rgb(153 , 0 , 0) ; font-family: , &amp;#34;consolas&amp;#34; , &amp;#34;liberation mono&amp;#34; , &amp;#34;menlo&amp;#34; , &amp;#34;courier&amp;#34; , monospace ; font-size: 13.6px ; font-weight: 700 ; background-color: rgb(246 , 248 , 250)&quot;&gt;reply()&lt;/span&gt;&lt;span style=&quot;color: rgb(68 , 85 , 136) ; font-family: , &amp;#34;consolas&amp;#34; , &amp;#34;liberation mono&amp;#34; , &amp;#34;menlo&amp;#34; , &amp;#34;courier&amp;#34; , monospace ; font-size: 13.6px ; font-weight: 700 ; background-color: rgb(246 , 248 , 250)&quot;&gt;&lt;br&gt;&lt;/span&gt;" style="whiteSpace=wrap;html=1;rounded=1;" vertex="1" parent="1">
          <mxGeometry x="240" y="1420" width="120" height="60" as="geometry" />
        </mxCell>
        <mxCell id="ccJrt9O3t7oF8oVuPIEJ-93" value="" style="edgeStyle=orthogonalEdgeStyle;rounded=0;orthogonalLoop=1;jettySize=auto;html=1;" edge="1" parent="1" source="ccJrt9O3t7oF8oVuPIEJ-90">
          <mxGeometry relative="1" as="geometry">
            <mxPoint x="640" y="1450" as="targetPoint" />
          </mxGeometry>
        </mxCell>
        <mxCell id="ccJrt9O3t7oF8oVuPIEJ-90" value="&lt;pre style=&quot;background-color: #ffffff ; color: #080808 ; font-family: &amp;#34;jetbrains mono&amp;#34; , monospace ; font-size: 11.3pt&quot;&gt;&lt;span style=&quot;color: #000000&quot;&gt;AbstractProxyInvoker&lt;/span&gt;&lt;/pre&gt;&lt;pre style=&quot;background-color: #ffffff ; color: #080808 ; font-family: &amp;#34;jetbrains mono&amp;#34; , monospace ; font-size: 11.3pt&quot;&gt;&lt;pre style=&quot;font-family: &amp;#34;jetbrains mono&amp;#34; , monospace ; font-size: 11.3pt&quot;&gt;&lt;span style=&quot;color: #00627a&quot;&gt;invoke()&lt;/span&gt;&lt;/pre&gt;&lt;/pre&gt;" style="whiteSpace=wrap;html=1;rounded=1;" vertex="1" parent="1">
          <mxGeometry x="440" y="1420" width="120" height="60" as="geometry" />
        </mxCell>
        <mxCell id="ccJrt9O3t7oF8oVuPIEJ-94" value="&lt;pre style=&quot;background-color: rgb(255 , 255 , 255) ; color: rgb(8 , 8 , 8) ; font-family: &amp;#34;jetbrains mono&amp;#34; , monospace ; font-size: 11.3pt&quot;&gt;&lt;span style=&quot;color: rgb(0 , 0 , 0)&quot;&gt;HeaderExchangeHandler&lt;/span&gt;&lt;/pre&gt;&lt;pre style=&quot;background-color: rgb(255 , 255 , 255) ; font-family: &amp;#34;jetbrains mono&amp;#34; , monospace ; font-size: 11.3pt&quot;&gt;&lt;pre style=&quot;color: rgb(8 , 8 , 8) ; font-family: &amp;#34;jetbrains mono&amp;#34; , monospace ; font-size: 11.3pt&quot;&gt;handleRequest&lt;span style=&quot;color: rgb(0 , 98 , 122)&quot;&gt;()&lt;/span&gt;&lt;/pre&gt;&lt;pre style=&quot;font-family: &amp;#34;jetbrains mono&amp;#34; , monospace ; font-size: 11.3pt&quot;&gt;whenComplete回调&lt;/pre&gt;&lt;/pre&gt;" style="whiteSpace=wrap;html=1;rounded=1;" vertex="1" parent="1">
          <mxGeometry x="650" y="1420" width="120" height="60" as="geometry" />
        </mxCell>
        <mxCell id="ccJrt9O3t7oF8oVuPIEJ-96" value="服务端获得客户端发送的Request请求对象信息，调用目标实现类返回结果封装为Response对象，发送网络请求响应客户端" style="text;html=1;strokeColor=none;fillColor=none;align=center;verticalAlign=middle;whiteSpace=wrap;rounded=0;" vertex="1" parent="1">
          <mxGeometry x="215" y="1480" width="265" height="120" as="geometry" />
        </mxCell>
      </root>
    </mxGraphModel>
  </diagram>
</mxfile>
